/* XPM */
static char *_ba4b5b077214036bc22a513b59bb500XHip6ZCPd6EZWtZT[] = {
/* columns rows colors chars-per-pixel */
"32 32 2 1 ",
"  c black",
". c white",
/* pixels */
"  . ........................ .  ",
" . .                        . . ",
"  ............................  ",
"                                ",
"      ...               ...     ",
"     . ..              . ..     ",
"     . ..              . ..     ",
"     ....              ....     ",
"  . ........................ .  ",
" . .                        . . ",
"  ............................  ",
"                                ",
"      ...               ...     ",
"     . ..              . ..     ",
"     . ..              . ..     ",
"     ....              ....     ",
"  . ........................ .  ",
" . .                        . . ",
"  ............................  ",
"                                ",
"      ...               ...     ",
"     . ..              . ..     ",
"     . ..              . ..     ",
"     ....              ....     ",
"  . ........................ .  ",
" . .                        . . ",
"  ............................  ",
"                                ",
"      ...               ...     ",
"     . ..              . ..     ",
"     . ..              . ..     ",
"     ....              ....     "
};
