/* XPM */
static char *result[] = {
/* columns rows colors chars-per-pixel */
"32 32 6 1 ",
"  c black",
". c #068940",
"X c #289A49",
"o c #74BC75",
"O c #34AC80",
"+ c None",
/* pixels */
"++++++++++OOOOOO++++++++++++++++",
"++++++++++OOOOOO++++++++++++++++",
"+++++++OOOOOOOOOOOOOOOOOOOOO++++",
"+++++++OOOOOOOOOOOOOOOOOOOOO++++",
"+++++++OOOOOOOOOOOOOOOOOOOOO++++",
"+++++++OOOOOOOOOOOOOOOOOOOOO++++",
"+++++++OOOOOOOOOOOOOOOOOOOOO++++",
"+++++++OOOOOOOOOOOOOOOOOOOOO++++",
"+++++++OOOOOOOOOOOOOOOOOOOOO++++",
"+++++++OOOOOOOOOOOOOOOOOOOOO++++",
"+++++++OOOOOOOOOOOOOOOOOOOOO++++",
"++++++++OOOOOOOOOOOOOOOOOOOO++++",
"++++++++OOOOOOOOOOOOOOOOOOOO++++",
"++++++++OOOOOOOOOOOOOOOOOOOO++++",
"++++++++OOOOOOOOOOOOOOOOOOOO++++",
"++++++++++..........++++++++++++",
"++++++++++..........++++++++++++",
"++++++++++..+.......++++++++++++",
"++++++++++..+.......++++++++++++",
"+++++++++++.........++++++++++++",
"+++++++++++.........++++++++++++",
"+++++++++++ooXXXXXX+++++++++++++",
"+++++++++++o+XXXXXX+++++++++++++",
"+++++++++++++XXXXXX+++++++++++++",
"+++++++++++++XX++XXX++++++++++++",
"+++++++++++++XX+XXXX++++++++++++",
"+++++++++++++XX+ XX+++++++++++++",
"+++++++++++++XX++ ++++++++++++++",
"+++++++++++++XX+++ +++++++++++++",
"+++++++++++++XX+++++++++++++++++",
"+++++++++++++XX+++++++++++++++++",
"+++++++++++++   ++++++++++++++++"
};
