/* XPM */
static char *_9809b3fa0374038ee29864ef7ba5b49SpnPgdCjUGQ7g1Wf[] = {
/* columns rows colors chars-per-pixel */
"32 32 6 1 ",
"  c #2F2E2F",
". c #302C2E",
"X c #3E2F5A",
"o c #564064",
"O c #85578E",
"+ c #BE9BB0",
/* pixels */
"                                ",
" oOOOOOOOOOOOOOOOOOO   OOOOOOOOO",
" OOOoOOOOOOOOoOOOoOOO OOOOOOOOoO",
" OOOOoOOOooOoooOoooOO OOooOooooo",
" OOooOXOXooooooXoooXO OXooooooXo",
" OooooXXXXoXXoooooXXX XXXooooXXo",
" oOooXXXXXXXXXXXoXXXX XXXXoXXXXX",
" XoXXXXXXXXXXXXXXXXX   XXXXXXXX.",
"                                ",
" oOOOOOOOOOO   OOOOOOOO   ++++++",
" OOOOoOOOOOOO OOOOOOoOOO OooOOOO",
" OOooooOoooOO OOooOooooO XXooOoO",
" OooooooooXXO OXXooooooo  XXoooo",
" oOooXXXXXXXX XXXXXXooXX    XXoX",
" XooXXXXXXXX   XXXXXXXX       XX",
"                                ",
" oOOOOOOOOOOOOOOOOOOO   OOOOOOOO",
" OOOOOOOOOOOOOOooOOOOO OOOOOOooO",
" OOoooOooOoooOooooOoOO OOoOooooo",
" OoOoooooooXoooXXXooXO OXooooXXo",
" OoooooXooXXXooooooXXX XXXooXXoo",
" oOoooXXXXXXXXXXooXXXX XXXXXXXXX",
" XooXXXXXXXXXXXXXXXXX   XXXXXXXX",
"                                ",
" oOOOOOOOO   OOOOOOOOOOOO   OOOO",
" OOOOOOoOOO OOOOOOoOOOOOOO OOOoO",
" OOOoOoooOO OOooOooooOooOO OOooo",
" OOooXooooO OoooooXooXoooO OooXo",
" OoOooXoooX XooooXXoooXooX XoooX",
" OooooXXoXX XXoXXXooXoooXX XXooo",
" oOooXXXXXX XXXXXXXXXXoXXX XXXoX",
" XoXXXXXXX   XXXXXXXXXXXX   XXXX"
};
