/* XPM */
static char *_4073e0e605640e4f599cae62a2bcd4dMsgU8XSO1P67EMUS[] = {
/* columns rows colors chars-per-pixel */
"32 32 8 1 ",
"  c None",
". c #141B1B",
"X c #E66A3A",
"o c #965340",
"O c #BD7959",
"+ c #F38C4C",
"@ c #F2AD7D",
"# c #FFCB8D",
/* pixels */
"@@@@@@@@OO@@@@@@@O@@@@@@@@OOOOOo",
"@@@@@@@OO@@@@@@@@@@@@@@@@@@OOOOo",
"#@@@@@@..@@@@@@@@@@@@@..@@@OOOOO",
"@#@@@..++.............++..@@oOOO",
"@@#@.+o++o+++++++++++o++o+.oooOO",
"@@##.XXooXXXXXXXXXXXXXooXX.ooooO",
"@@##.oXXXX++XXXXXXX++XXXXo.ooooo",
"@@#O.XXXXXXXXXXXXXXXXXXXXX.ooooo",
"@@OO.XXXXXX+++++++++XXXXXX.ooooo",
"@@OO.XXXXXXXXXXXXXXXXXXXXX.OOooo",
"@@OO.XXXXX+++++++++++XXXXX.OOOoo",
"@OOO.XXXXXXXXXXXXXXXXXXXXX.OOOOo",
"@OOO.ooXXX+++XXXX++++XXXoo.OOOOO",
"@OOOoXX++XXXXXXXXXXXXX++XXoOOOOo",
"OOOOOoo++ooooooooooooo++ooOOOOoo",
"OOOOOoooooooooooooooooooooOOOooO",
"@OOOOOoOoo...........ooooOOOOOOO",
"@@OOOOOOo.............ooOOOOOOOO",
"@OOOOOOo...............oOOOOOOOO",
"OOOOOOOo...............oOOOOOOOO",
"OOOOOOOo...............oOoooOOOO",
"OOOOOOOo...............ooooOOOOO",
"OOOOOOo................oo@OOOOOO",
"OOOOOo.................o@@OOOOOo",
"@@OOoo.................@@OOOOOoO",
"@@OOOoo................@OOOOO#OO",
"@OOOOooo...............OOOOO@##O",
"OOOOoooo....ooooooo....OOOO@@@#O",
"OOO@@Ooo..ooooooooooo..OOO@@@OOO",
"OO@@OOOo.ooooooooooooo.oOO@@OOOO",
"OOOOOOO                   @OOOOO",
"OoOOOO                     OOOOO"
};
