/* XPM */
static char *_6cee53f05434cc7a08e0116d066229bhrm6wg5MH9apHr20[] = {
/* columns rows colors chars-per-pixel */
"32 32 6 1 ",
"  c None",
". c black",
"X c #72777D",
"o c #8E9399",
"O c #9BA9B5",
"+ c #CAD1D8",
/* pixels */
"                                ",
"                                ",
"                                ",
"                                ",
"                                ",
"      ......................... ",
"      .OOOOOOOOOOOOOOOOO.XXXXX. ",
"      .O...............O.XXXXX. ",
"      .O.OOOOOOOOOOOOO.O.XXXXX. ",
"      .O.OOOOOOOOOOOOO.O.XXXXX. ",
"      .O.OOOOOOOOOOOOO.O.XXXXX. ",
"      .O.OO....OOOOOOO.O.XXXXX. ",
"      .O.O.oooo.OOOOOO.O.XXXXX. ",
"      .O.....ooo.OOOOO.O.XXXXX. ",
"      .O...++.ooo.OOOO.O.XXXXX. ",
"      .O..++++.oo.OOOO.O.XXXXX. ",
"      .O..++++.oo.OOOO.O.XXXXX. ",
"      .O...++.ooo.OOOO.O.XXXXX. ",
"      .O..o..ooo.OOOOO.O.XXXXX. ",
"      .O.O.oooo.OO...O.O.XXXXX. ",
"      .O.OO....OO.+++..O.XXXXX. ",
"      .O.OOOOOOOO.+.+..O.XXXXX. ",
"      .O.OOOOOOOO..+...O.XXXXX. ",
"      .O.OOOOOOOOO.+.O.O.XXXXX. ",
"      .O.OOOOOOOOO.+.O.O.XXXXX. ",
"      .O.OOOOOOOOO.+.O.O.XXXXX. ",
"      .O.OOOOOOOOO.+.O.O.XXXXX. ",
"      .O.OOOOOOOOOO.OO.O.XXXXX. ",
"      .O.OOOOOOOOOOOOO.O.XXXXX. ",
"      .O...............O.XXXXX. ",
"      .OOOOOOOOOOOOOOOOO.XXXXX. ",
"      ......................... "
};
