/* XPM */
static char *b4925c1ab6214410990e4473e20a8a4d3TYBGwJLMZ0fq5UT[] = {
/* columns rows colors chars-per-pixel */
"32 32 8 1 ",
"  c None",
". c black",
"X c #72777D",
"o c #8E9399",
"O c #9BA9B5",
"+ c #F6B3A9",
"@ c #CAD1D8",
"# c white",
/* pixels */
"                                ",
"                                ",
"                                ",
"                                ",
"                                ",
"      ......................... ",
"      .OOOOOOOOOOOOOOOOO.XXXXX. ",
"      .O...............O.XXXXX. ",
"      .O.OOOOOOOOOOOOO.O.XXXXX. ",
"      ....O....OOOOOOO.O.XXXXX. ",
"     .####.oooo.OOOOOO.O.XXXXX. ",
"    .######..ooo.OOOOO.O.XXXXX. ",
"   .##..####..ooo.OOOO.O.XXXXX. ",
"   .#.#..###+..oo.OOOO.O.XXXXX. ",
"   .#....##++..oo.OOOO.O.XXXXX. ",
"   .##..##++..ooo.OOOO.O.XXXXX. ",
"    .####++..ooo.OOOOO.O.XXXXX. ",
"     .++++.oooo.OOOOOO.O.XXXXX. ",
"      ....O....OOOOOOO.O.XXXXX. ",
"      .O.O.O.O.O.O.O.O.O.XXXXX. ",
"      .O.O.O.O.O.O.O.O.O.XXXXX. ",
"      .O..O.O.O.O......O.XXXXX. ",
"      .O.OOOOOOOO.@@@..O.XXXXX. ",
"      .O.OOOOOOOO.@.@..O.XXXXX. ",
"      .O.OOOOOOOO..@...O.XXXXX. ",
"      .O.OOOOOOOOO.@.O.O.XXXXX. ",
"      .O.OOOOOOOOO.@.O.O.XXXXX. ",
"      .O.OOOOOOOOO.@.O.O.XXXXX. ",
"      .O.OOOOOOOOO.@.O.O.XXXXX. ",
"      .O...............O.XXXXX. ",
"      .OOOOOOOOOOOOOOOOO.XXXXX. ",
"      ......................... "
};
