/* XPM */
static char *_09b5c3d786f4506e28ab6dda4bf8a4egjbHiW618lPQbeqq[] = {
/* columns rows colors chars-per-pixel */
"32 32 9 1 ",
"  c None",
". c black",
"X c #72777D",
"o c #923C35",
"O c #8E9399",
"+ c #9BA9B5",
"@ c #F6B3A9",
"# c #CAD1D8",
"$ c white",
/* pixels */
"                                ",
"      ......................... ",
"      ....+....+++++++++.XXXXX. ",
"     .$$$$.OOOO........+.XXXXX. ",
"    .$$$$$$..OOO.+++++.+.XXXXX. ",
"   .$$..$$$$..OOO.++++.+.XXXXX. ",
"   .$.$..$$$..OOO.++++.+.XXXXX. ",
"   .$.$..$$$@..OO.++++.+.XXXXX. ",
"   .$....$$@@..OO.++++.+.XXXXX. ",
"   .$$..$$@@..OOO.++++.+.XXXXX. ",
"    .$$$$@@..OOO.+++++.+.XXXXX. ",
"     .@@@@.OOOO.++++++.+.XXXXX. ",
"      ....+....+++++++.+.XXXXX. ",
"      .+..+++..+++.+++.+.XXXXX. ",
"      .+.o.+....+...+..+.XXXXX. ",
"      .+.oo............+.XXXXX. ",
"      .+.ooo...........+.XXXXX. ",
"      .+.ooo...........+.XXXXX. ",
"      .+.ooo...........+.XXXXX. ",
"      .+..oo...........+.XXXXX. ",
"      .+.+.o.++...+..+.+.XXXXX. ",
"      .+.++.++++.+++.+.+.XXXXX. ",
"      .+.+++++++++...+.+.XXXXX. ",
"      .+.++++++++.###..+.XXXXX. ",
"      .+.++++++++.#.#..+.XXXXX. ",
"      .+.++++++++..#...+.XXXXX. ",
"      .+.+++++++++.#.+.+.XXXXX. ",
"      .+.+++++++++.#.+.+.XXXXX. ",
"      .+...........#...+.XXXXX. ",
"      .+++++++++++.#.+++.XXXXX. ",
"      .............#........... ",
"                   .            "
};
