/* XPM */
static char *_06d4d7e07cc488bd7ca9f406b9a810cxyP8RXxoxxu3qRGG[] = {
/* columns rows colors chars-per-pixel */
"32 32 5 1 ",
"  c None",
". c #393939",
"X c gray42",
"o c gray68",
"O c #DEFFDE",
/* pixels */
"                                ",
"                                ",
"                                ",
"                                ",
"                                ",
"                                ",
"                                ",
"                                ",
"        OOOOOOOOOOOOOOOO        ",
"        OX............XO        ",
"        XOOOOOOOOOOOOOOX        ",
"        .O............O.        ",
"        .O.oooooooooo.O.        ",
"        .O.OXXOXOOOXO.O.        ",
"        .O.OOXOXOXOXO.O.        ",
"        .O.OOOOOOOOOO.O.        ",
"        .O.XXXXXXXXXX.O.        ",
"        .O.XXXXXXXXXX.O.        ",
"        .o.OOOOOOOOOO.o.        ",
"        .o............o.        ",
"        .o.OOOOOOOOOO.o.        ",
"        .o.XXXXXXXXXX.o.        ",
"        X.XXXXXXXXXXXX.X        ",
"        OOOOOOOOOOOOOOOO        ",
"                                ",
"                                ",
"                                ",
"                                ",
"                                ",
"                                ",
"                                ",
"                                "
};
