/* XPM */
static char *_4ed70cbd5d2416b9ddab25a21192111HS0Yr1WIi18ZRPXA[] = {
/* columns rows colors chars-per-pixel */
"32 32 3 1 ",
"  c None",
". c black",
"X c #64BF34",
/* pixels */
"                                ",
"                                ",
"                                ",
"                                ",
"                                ",
"                                ",
"                                ",
"               ..               ",
"           ....XX...            ",
"          .XXXXXXXXX.           ",
"         .XXXXXXXXXXX.          ",
"         .XXX......XX.          ",
"         .XXX..XX.....          ",
"         .XXX..XX...            ",
"         .XXXXXXXXXX.           ",
"          .XXXXXXXXXX.          ",
"          ........XXXX.         ",
"         .XXX..XX.XXXX.         ",
"         .XXX..XX.XXXX.         ",
"         .XXX..XX.XXXX.         ",
"         .XXXXXXXXXXXX.         ",
"          .XXXXXXXXX..          ",
"           .........            ",
"              .XX.              ",
"               ..               ",
"                                ",
"                                ",
"                                ",
"                                ",
"                                ",
"                                ",
"                                "
};
