/* XPM */
static char *_a246c2df1544666b2e8ec2017504088OXiOwgo6TjcGfO9f[] = {
/* columns rows colors chars-per-pixel */
"32 32 3 1 ",
"  c None",
". c black",
"X c #64BF34",
/* pixels */
"               ...              ",
"              .XXX.             ",
"          .....XXX....          ",
"         .XXXXXXXXXXXX.         ",
"        .XXXXXXXXXXXXXX.        ",
"        .XXXXXXXXXXXXXX.        ",
"       .XXXXX.......XXX.        ",
"       .XXXXX..XXX......        ",
"       .XXXXX..XXX....          ",
"        .XXXXXXXXXXXXX.         ",
"        .XXXXXXXXXXXXXX.        ",
"         .XXXXXXXXXXXXXX.       ",
"          .........XXXXXX.      ",
"        .......XXX.XXXXXX.      ",
"       .XXXX...XXX.XXXXXX.      ",
"       .XXXX...XXX.XXXXXX.      ",
"       .XXXX...XXX.XXXXXX.      ",
"       .XXXXXXXXXXXXXXXX.       ",
"        .XXXXXXXXXXXXXXX.       ",
"         .XXXXXXXXXXXX..        ",
"          ............          ",
"              .XXX.             ",
"              .XXX.             ",
"               ...              ",
"                                ",
"                                ",
"                                ",
"                                ",
"                                ",
"                                ",
"                                ",
"                                "
};
