/* XPM */
static char *b3bc8b4855f84bcab3fea132a3044d53lXMvvpFcH72Y9Kgt[] = {
/* columns rows colors chars-per-pixel */
"32 32 5 1 ",
"  c None",
". c #5ACBFD",
"X c #6EE4FF",
"o c #98FFF6",
"O c white",
/* pixels */
"                                ",
"                 XXXXXXXX       ",
"           XXXXXX.XXXX...XXX    ",
"       XXXX....XXXooooX.....XX  ",
"     XX.......XoooOOOOoX......X ",
"   XX..........XXXXXXXX.......Xo",
"  X............XooOOOoXX......Xo",
" X..............XXXXooOoX....Xoo",
"oX...............XooOXXX...XXoo ",
"oX................XXOoX..XXoOoX ",
" oXX................XXXXXoOOOo  ",
" XooXXX........XXXXXXXoOOOOOoX  ",
"  XOOOoXXXXXXXXooOOOOOoooOOoX   ",
"  oOXXoooooooooooXXXoooOOOooo   ",
"   oOOXXXXXXXXXXXooOOOooOOOoX   ",
"    XXoOOooX.XoooooXXoOOOOoX    ",
"     ooXXXXX..XXXXoooOOOOoXo    ",
"      ooOOooX...XooOOOOoooooo   ",
"        oXXXXX...XXXXoOOoOOOo   ",
"          ooooX..XooOOoOOOoOoo  ",
"            XX....XXoOOOooOOoXo ",
"             oX...XXXXooOOOoXoo ",
"              oX.XooOOOOOoXooo  ",
"              X...XXXXoXXOOoo   ",
"              oX.XOOOooOOOoo    ",
"             oX..XXoOOOooo      ",
"             XoXXoOoXXXo        ",
"            oXX.XXOOoo          ",
"            XoXXooOo            ",
"            o.XXooX             ",
"             o.X.oo             ",
"              oooo              "
};
