/* XPM */
static char *bad612a4f0ba437ccc65f80b63c353c9uh4fFzIfmjYSetdB[] = {
/* columns rows colors chars-per-pixel */
"32 32 5 1 ",
"  c None",
". c #5ACBFD",
"X c #6EE4FF",
"o c #98FFF6",
"O c white",
/* pixels */
"                                ",
"       XXXXXXXX                 ",
"    XXX...XXXX.XXXXXX           ",
"  XX.....XooooXXX....XXXX       ",
" X......XoOOOOoooX.......XX     ",
"oX.......XXXXXXXX..........XX   ",
"oX......XXoOOOooX............X  ",
"ooX....XoOooXXXX..............X ",
" ooXX...XXXOooX...............Xo",
" XoOoXX..XoOXX................Xo",
"  oOOOoXXXXX................XXo ",
"  XoOOOOOoXXXXXXX........XXXooX ",
"   XoOOoooOOOOOooXXXXXXXXoOOOX  ",
"   oooOOOoooXXXoooooooooooXXOo  ",
"   XoOOOooOOOooXXXXXXXXXXXOOo   ",
"    XoOOOOoXXoooooX.XooOOoXX    ",
"    oXoOOOOoooXXXX..XXXXXoo     ",
"   ooooooOOOOooX...XooOOoo      ",
"   oOOOoOOoXXXX...XXXXXo        ",
"  ooOoOOOoOOooX..Xoooo          ",
" oXoOOooOOOoXX....XX            ",
" ooXoOOOooXXXX...Xo             ",
"  oooXoOOOOOooX.Xo              ",
"   ooOOXXoXXXX...X              ",
"    ooOOOooOOOX.Xo              ",
"      oooOOOoXX..Xo             ",
"        oXXXoOoXXoX             ",
"          ooOOXX.XXo            ",
"            oOooXXoX            ",
"             XooXX.o            ",
"             oo.X.o             ",
"              oooo              "
};
