/* XPM */
static char *result[] = {
/* columns rows colors chars-per-pixel */
"32 32 9 1 ",
"  c black",
". c #068940",
"X c #289A49",
"o c #74BC75",
"O c #8DD122",
"+ c #C4DA53",
"@ c #34AC80",
"# c white",
"$ c None",
/* pixels */
"$$$$$$$$$$$$$$$$$$$$$$$$$$$$$$$$",
"$$$$$$$$$$$$$$$$$$$$$$$$$$$$$$$$",
"$$$$$$$$$$@@@@@@$$$$$$$$$$$$$$$$",
"$$$$$$$$$$@@@@@@$$$$$$$$$$$$$$$$",
"$$$$$$$@@@@@@@@@@@@@@@@@@@@@$$$$",
"$$$$$$$OOOOOOOO@OOOOOOOO@@@@$$$$",
"$$$$$$$O##    O@O##    O@@@@$$$$",
"$$$$$$$O##    O@O##    O@@@@$$$$",
"$$$$OOOO##    OOO##    O@@@@$$$$",
"$$$$O$$O##    O@O##    O@@@@$$$$",
"$$$$O$$O##    O@O##    O@@@@$$$$",
"$$$$$$$O##    O@O##    O@@@@$$$$",
"$$$$$$$OOOOOOOO@OOOOOOOO@@@@$$$$",
"$$$$$$$$@@@@@@@@@@@@@###@###$$$$",
"$$$$$$$$@@@@@@@@@@@@@###@###$$$$",
"$$$$$$$$@@@@@@@@@@@@@@@@@@@@$$$$",
"$$$$$$$$@@@@@@@@@@@@@@@@@@@@$$$$",
"$$$$$$$$$$..........$$$$$$$$$$$$",
"$$$$$$$$$$....++.++.$$$$$$$$$$$$",
"$$$$$$$$$$..$.......$$$$$$$$$$$$",
"$$$$$$$$$..$$.++.++.$$$$$$$$$$$$",
"$$$$$$$$$..$$..+....$$$$$$$$$$$$",
"$$$$$$$$$..$$.......$$$$$$$$$$$$",
"$$$$$$$$$oo$$XXXXXX$$$$$$$$$$$$$",
"$$$$$$$$$o$$$XXXXXX$$$$$$$$$$$$$",
"$$$$$$$$$$$$$$XXXXX$$$$$$$$$$$$$",
"$$$$$$$$$$$$$$XXXX$$$$$$$$$$$$$$",
"$$$$$$$$$$$$$XXXXXX$$$$$$$$$$$$$",
"$$$$$$$$$$$$XXXX$XX$$$$$$$$$$$$$",
"$$$$$$$$$$$$XXX$$$XX$$$$$$$$$$$$",
"$$$$$$$$$$$XXX$$$$XX$$$$$$$$$$$$",
"$$$$$$$$$$$$   $$$   $$$$$$$$$$$"
};
