/* XPM */
static char *_e17fda07fe24b8faf6b12aadbbfb0catyCQnhQ8xpjwVhbr[] = {
/* columns rows colors chars-per-pixel */
"32 32 17 1 ",
"  c None",
". c #5C523E",
"X c #CD9121",
"o c #D7A530",
"O c #FBD636",
"+ c #908356",
"@ c #B3A366",
"# c #DCAD43",
"$ c #E2BA4D",
"% c #E2B851",
"& c #E6BF59",
"* c #FBDB51",
"= c #FBDD5C",
"- c #EAC763",
"; c #FBDE63",
": c #FBDF6A",
"> c #FAE587",
/* pixels */
"                                ",
"            .....+++            ",
"         ....XXX#--+++.         ",
"        ..XXXOO***:--%..        ",
"      ...XOOOO*****:=OX...      ",
"     ..XXOOOO#####XOOOOXX..     ",
"    ..XOOOO##$$$$ooXXOOOOX++    ",
"    .XOOOX#$$$$$oooooXXO**#+    ",
"   ..XOOX$$$$$$oooooooo#**#..   ",
"  ..XOOX$$$$$$oooooooo$$#*OX..  ",
"  .XOOO#$$$$ooooooooo$$$XOOOX.  ",
"  .XOO#$$$$ooooooooo$$$ooXOO#@  ",
" ..X**#$$>ooooo>>o$$$$>ooXO*&@@ ",
" .X**#$$$OoooooOO$$$$oOooo#*;&@ ",
" .#**#$$oOXoooXO*#$$oXOo$$#*;&@ ",
" +#**#$oo>XXXXX>>#XXXX>$$$#**&@ ",
" +#**Xooo>>XX#>>>>XXX>>$$$#**#@ ",
" +#*OXoooO>>>>>*O>>>>>*$$$#**#+ ",
" +#OOXoooOO****OOOO****$$$#**#+ ",
" +.XOOXooo***OOOOO****$$$#**#++ ",
"  .XOOXo$$$$oooo$$$$$$$$$#**#+  ",
"  .XOOO#$$$oooo$$$$$$$$$#***#.  ",
"  ..XO*#$$oooo$$$$$$$$$$#**#..  ",
"   ..#**Xooo$$$$$$$$$$$#**X..   ",
"    +#*OOXX$$$$$$$$$$##**OX.    ",
"    ++XOOO*##$$$$$$##***OX..    ",
"     ..X#****######***OXX..     ",
"      .++#***********OX...      ",
"        ++###******#XX..        ",
"         ++++#####X....         ",
"            +++++...            ",
"                                "
};
