/* XPM */
static char *_c5eff962594490a811f35e7090d9b30nss4Gl3S8UAFCoCt[] = {
/* columns rows colors chars-per-pixel */
"32 32 19 1 ",
"  c None",
". c #5C523E",
"X c #D08B0B",
"o c #CD9121",
"O c #D7A530",
"+ c #DEA934",
"@ c #FBD636",
"# c #908356",
"$ c #A69760",
"% c #B3A366",
"& c #DCAD43",
"* c #E2BA4D",
"= c #E7BD50",
"- c #FBDB51",
"; c #FBDD5C",
": c #EAC763",
"> c #EAC860",
", c #FBDF6A",
"< c #FAE587",
/* pixels */
"                                ",
"           ..####%%...          ",
"         ...&::###OOO..         ",
"        ..o&--,::$.XXX..        ",
"       ..o-----,;o..OOO.        ",
"       .o---&&o@@@o.XXX##       ",
"      .#---&*OOo@@@..O**#       ",
"      #&-&&*OOOOoo@o#+++..      ",
"     ##&-**OOOOOOO@&##*OO.      ",
"     #&-&*<Oo<oO<O&-&#XXX.      ",
"     #--oO@oo@oo@*&-@.OOO.      ",
"     #-@OO<o<<<o<**@@.XX+%%     ",
"    ##@@OO@<<@<<-*O@@..*>>%     ",
"    #o@oOO@@@----OOo@o#+==%     ",
"    .o@oOOo@----oOOo-&#*>>%     ",
"    .o@oOOo&&&oooOO&-&#++=%     ",
"    .o@oO&&&*OOooo*&-&#***%     ",
"    .o@o*&&&@@Oo&&*&-&#+++#     ",
"    .o@&*&&@o@o*&&*&-&#***#     ",
"    ..--*oo@o@&*&&*--##+++#     ",
"     #--Ooo@---*&&*--#***#.     ",
"     #-@oOo----*&*&--#+++.      ",
"     #o@oO&<&&&<&*&-&#**O.      ",
"     ..o-**<-*-<**-&##XXX.      ",
"      .&-&&*<<<*&&-&#OOO..      ",
"      ##---&***&---#.XXX.       ",
"       #&---&&&---o.OOO..       ",
"       ##&-------o..XXX.        ",
"        ##&&---&o..OOO..        ",
"         ###&&o...XXX..         ",
"           ##.........          ",
"                                "
};
