/* XPM */
static char *eacb6370c978468ebb663fa9209efea4gHqWt6xgYMEAyUAy[] = {
/* columns rows colors chars-per-pixel */
"32 32 9 1 ",
"  c None",
". c black",
"X c #068940",
"o c #289A49",
"O c #74BC75",
"+ c #8DD122",
"@ c #C4DA53",
"# c #34AC80",
"$ c white",
/* pixels */
"                                ",
"                ######          ",
"                ######          ",
"    #####################       ",
"    ####++++++++#++++++++       ",
"    ####+....$$+#+....$$+       ",
"    ####+....$$+#+....$$+       ",
"    ####+....$$+++....$$++++    ",
"    ####+....$$+#+....$$+  +    ",
"    ####+....$$+#+....$$+  +    ",
"    ####+....$$+#+....$$+       ",
"    ####++++++++#++++++++       ",
"    $$$#$$$#############        ",
"    $$$#$$$#############        ",
"    ####################        ",
"    ####################        ",
"            XXXXXXXXXX          ",
"            X@@X@@XXXX          ",
"            XXXXXXX XX          ",
"            X@@X@@X XX          ",
"            XXXX@XX XX          ",
"            XXXXXXX XX          ",
"            ooooooo  OO         ",
"            ooooooo   O         ",
"             ooooo              ",
"             oooo               ",
"             ooooo              ",
"              oooo.             ",
"              oooo.             ",
"               ooo.             ",
"               ooo              ",
"              ...               "
};
