/* XPM */
static char *_0037e200e004e48a70ce482ffe17231pVyYhdqhqiBa9suZ[] = {
/* columns rows colors chars-per-pixel */
"32 32 6 1 ",
"  c None",
". c #CA6230",
"X c #E48334",
"o c #F4AA38",
"O c #F5C94A",
"+ c #F8E97D",
/* pixels */
"                                ",
"                                ",
"                                ",
"                                ",
"                                ",
"             .XXooX.            ",
"           .XXXoOOoXX.          ",
"        .XXXXX.OOOOoXXX.        ",
"       XXXXXX.XO++OoX.ooX       ",
"      .XoOOoX.XOO+OoXoOoo.      ",
"      XoOO+OoX.oOOoX.O++oX      ",
"     XOOO+++OX.XXooXoOO+Oo.     ",
"    .oOO+O+OO.Xooooo.oO++OX     ",
"    XooO++OOXXooOOOoo.XOOOX.    ",
"    XXoOOOOO.ooOOOOOo.XoOoXX    ",
"    .XooOOOXXoOO+++OoXoOooXX    ",
"    X..XooX.XOO+O++OoXO+OXXX    ",
"    .XX.XX.XoOO++O+Oo.oOoo.X    ",
"    XXoooXXXooOO++OooXooXXXX    ",
"    .XooOoo.XooOOOo.XOXXoOoX    ",
"     XoO+OOo.X.ooXXooo.oOOX.    ",
"     .oO++OOOoXXXO+oXXoO+OoX    ",
"      XoO++Oo.XoO++O.XO+OoX     ",
"      .XoOOOoX.XO+OOXoOOo.      ",
"       .oooo.XoOOOOo.oooX       ",
"         .XXXXoooOOX..XX        ",
"           .X.XoooX..X          ",
"             X.XX.XX            ",
"                                ",
"                                ",
"                                ",
"                                "
};
