/* XPM */
static char *_be99ef892f04a4290df802c4397b76fQSWJZgxNQcVvlAN7[] = {
/* columns rows colors chars-per-pixel */
"32 32 6 1 ",
"  c None",
". c #CA6230",
"X c #E48334",
"o c #F4AA38",
"O c #F5C94A",
"+ c #F8E97D",
/* pixels */
"                                ",
"             .XXXX.             ",
"         .XX.XooXoXXo.          ",
"       .XXooooOooOoXXoX.        ",
"     .XXoooOOOOOooXoOOXX.       ",
"     XXooXOO+OOOOooOO+OOX       ",
"    .XooooO+++OOXoOO+O+OOX.     ",
"    XXooOOO+OOOOXoOO++O+OoX.    ",
"    XooOoOOOOOoXoooOO++OOX.o    ",
"   .Xo.XX+OooXX.XXooO+OOooOo.   ",
"   XOOoo.ooo.ooooXXXoOOooOo.X   ",
"   XoOOooXo.oOOOOoo.XoXX.XoXX   ",
"  .XoOOOo.XoO++O+oXX.X.ooOOoX.  ",
"  XXOO++OOXO++OOOO+OX.oOO+OOoX  ",
"  X.O++OOOXO+O+O++OOoXOO+O+OOo  ",
"  .oO+++OXoOO+++O++OoXO++++OOo  ",
"  XoO++O+XoOO+O+OO++oXO+O+OOoX  ",
"  XoOO+O+.XoOOOO++OOoXoOO+OOoX  ",
"  XoOOO+OoXXoOOOOOOOX.XoOOOOoX  ",
"  .ooOOOoXo.XoOOOOooXOXXoOoOo.  ",
"   .ooOo.oO+.XoooooXoOo.XoXoX.  ",
"   X.oo.oOO+O+XXXX.oO+oXX..XX   ",
"   XooXoOO+++O++XooOOOoOooXX.   ",
"    Xoo.oO++OOOoOOOoOoXoO+oX    ",
"    .XoooOO+OOXO++OOoX.OO+o.    ",
"     XoOXoOOOXO+++OOoXo+OOOX    ",
"     .XoOoooXXO+O+OOXoOoOo.     ",
"      .XXoOX.ooOOOOooXOooX      ",
"        .XoooOXoOOXoXooX.       ",
"          .XooOoXooXX.          ",
"            .XXXXX.             ",
"                                "
};
